<svg xmlns="http://www.w3.org/2000/svg" width="1em" height="1em" preserveAspectRatio="xMidYMid meet" viewBox="0 0 24 24"><path fill="currentColor" d="M14 11.8q.275 0 .512-.213q.238-.212.288-.537q.05-.325.238-.575q.187-.25.562-.625q.75-.75 1-1.213q.25-.462.25-1.087q0-1.125-.788-1.837Q15.275 5 14 5q-.825 0-1.487.387q-.663.388-1.063 1.063q-.15.25-.037.525q.112.275.412.4q.25.1.525 0T12.825 7q.225-.3.525-.45q.3-.15.65-.15q.6 0 .975.337q.375.338.375.913q0 .35-.2.662q-.2.313-.7.788q-.675.575-.9.925q-.225.35-.275 1.025q-.025.3.188.525q.212.225.537.225Zm0 3.2q.425 0 .738-.312q.312-.313.312-.738t-.312-.738Q14.425 12.9 14 12.9t-.737.312q-.313.313-.313.738t.313.738Q13.575 15 14 15Zm-6 3q-.825 0-1.412-.587Q6 16.825 6 16V4q0-.825.588-1.413Q7.175 2 8 2h12q.825 0 1.413.587Q22 3.175 22 4v12q0 .825-.587 1.413Q20.825 18 20 18Zm-4 4q-.825 0-1.412-.587Q2 20.825 2 20V7q0-.425.288-.713Q2.575 6 3 6t.713.287Q4 6.575 4 7v13h13q.425 0 .712.288q.288.287.288.712t-.288.712Q17.425 22 17 22Z"/></svg>